# xmcd
#
# Track frame offsets: 
#        150
#        8350
#        25165
#        41167
#        61612
#        72535
#        84452
#        93625
#        102175
#        115557
#        126587
#        142880
#        155112
#        168160
#        182270
#        194209
#        208027
#        220357
#        233450
#        247260
#        254720
#        266160
#        275120
#        284150
#
# Disc length: 3902 seconds
#
# Revision: 3
# Processed by: cddbd v1.5.2PL0 Copyright (c) Steve Scherf et al.
# Submitted via: ExactAudioCopy v0.95b3
#
DISCID=700f3c18
DTITLE=Various Artist - Hats Off! A Tribute to Bill Monroe
DYEAR=1996
DGENRE=Bluegrass
TTITLE0=Vassar Clements and Josh Graves - Katy Hill
TTITLE1=Stonemans - Muleskinner Blues
TTITLE2=Donna Stoneman - Orange Blossom Special
TTITLE3=Mac Wiseman - In the Pines
TTITLE4=Smith Brothers - Footprints in the Snow
TTITLE5=Osborne Brothers - Kentucky Waltz
TTITLE6=Carl Story - True Life Blues
TTITLE7=Benny Martin - Blue Moon of Kentucky
TTITLE8=Josh Graves and Billy Troy - California Blues (Blue Yodel 4)
TTITLE9=Lester Flatt - Why Did You Wander
TTITLE10=Osborne Brothers - I Hear a Sweet Voice Calling
TTITLE11=Mac Wiseman - It's Mighty Dark to Travel
TTITLE12=Osborne Brothers - My Rose of Old Kentucky
TTITLE13=Joe Maphis - Tenbrooks and Molly
TTITLE14=Mac Wiseman - Girl in the Blue Velvet Band
TTITLE15=Osborne Brothers and Mac Wiseman - Travelin' This Lonesome Road
TTITLE16=Buddy Spicher - Uncle Pen
TTITLE17=Seldom Scene - Little Georgia Rose
TTITLE18=Pinnacle Boys - Cheyenne
TTITLE19=Lester Flatt's Nashville Grass - Roanoke
TTITLE20=Merle Travis and Joe Maphis - Whitehouse Blues
TTITLE21=Pinnacle Boys - Sittin' on Top of the World
TTITLE22=Pinnacle Boys - Scotland
TTITLE23=Carl Story - Somebody Touched Me
EXTD=Subtitle: By Bluegrass Music's Greatest Stars\nCD: CMH CD-8014 (1
EXTD=996-06-11), UPC 027297801424.\n
EXTT0=
EXTT1=
EXTT2=
EXTT3=
EXTT4=
EXTT5=
EXTT6=
EXTT7=
EXTT8=
EXTT9=
EXTT10=
EXTT11=
EXTT12=
EXTT13=
EXTT14=
EXTT15=
EXTT16=
EXTT17=
EXTT18=
EXTT19=
EXTT20=
EXTT21=
EXTT22=
EXTT23=
PLAYORDER=
